<mxfile host="app.diagrams.net" agent="Mozilla/5.0 (Windows NT 10.0; Win64; x64; rv:134.0) Gecko/20100101 Firefox/134.0" version="26.0.6">
  <diagram id="6a731a19-8d31-9384-78a2-239565b7b9f0" name="Page-1">
    <mxGraphModel dx="1434" dy="822" grid="1" gridSize="10" guides="1" tooltips="1" connect="1" arrows="1" fold="1" page="1" pageScale="1" pageWidth="1169" pageHeight="827" background="none" math="0" shadow="0">
      <root>
        <mxCell id="0" />
        <mxCell id="1" parent="0" />
        <mxCell id="cNiK-8ckhrLXa3-nI2Zt-33" value="" style="rounded=0;whiteSpace=wrap;html=1;fillColor=none;" parent="1" vertex="1">
          <mxGeometry x="890" y="120" width="750" height="740" as="geometry" />
        </mxCell>
        <mxCell id="cNiK-8ckhrLXa3-nI2Zt-36" value="&lt;div style=&quot;font-size: 12px;&quot;&gt;Database Master Data Masyarakat&lt;/div&gt;&lt;div style=&quot;font-size: 12px;&quot;&gt;Data Psikolog&lt;br&gt;&lt;/div&gt;" style="text;html=1;align=left;verticalAlign=middle;whiteSpace=wrap;rounded=0;fontSize=12;" parent="1" vertex="1">
          <mxGeometry x="1269" y="207" width="100" height="60" as="geometry" />
        </mxCell>
        <mxCell id="cNiK-8ckhrLXa3-nI2Zt-37" style="edgeStyle=none;curved=1;rounded=0;orthogonalLoop=1;jettySize=auto;html=1;fontSize=12;startSize=8;endSize=8;endArrow=none;endFill=0;startArrow=classic;startFill=1;" parent="1" source="cNiK-8ckhrLXa3-nI2Zt-35" edge="1">
          <mxGeometry relative="1" as="geometry">
            <mxPoint x="1234.66" y="239" as="targetPoint" />
            <mxPoint x="1234.66" y="329" as="sourcePoint" />
          </mxGeometry>
        </mxCell>
        <mxCell id="cNiK-8ckhrLXa3-nI2Zt-38" style="edgeStyle=orthogonalEdgeStyle;rounded=0;orthogonalLoop=1;jettySize=auto;html=1;fontSize=12;startSize=8;endSize=8;endArrow=none;endFill=0;exitX=0.774;exitY=0.902;exitDx=0;exitDy=0;exitPerimeter=0;" parent="1" source="cNiK-8ckhrLXa3-nI2Zt-39" target="cNiK-8ckhrLXa3-nI2Zt-93" edge="1">
          <mxGeometry relative="1" as="geometry">
            <mxPoint x="1235" y="540" as="targetPoint" />
            <Array as="points">
              <mxPoint x="1378" y="437" />
            </Array>
          </mxGeometry>
        </mxCell>
        <mxCell id="fbhjmRC7C3WrphUypX53-27" style="edgeStyle=orthogonalEdgeStyle;rounded=0;orthogonalLoop=1;jettySize=auto;html=1;entryX=0;entryY=0.5;entryDx=0;entryDy=0;endArrow=none;endFill=0;" parent="1" source="cNiK-8ckhrLXa3-nI2Zt-39" target="fbhjmRC7C3WrphUypX53-26" edge="1">
          <mxGeometry relative="1" as="geometry">
            <Array as="points">
              <mxPoint x="1270" y="313" />
            </Array>
          </mxGeometry>
        </mxCell>
        <mxCell id="cNiK-8ckhrLXa3-nI2Zt-39" value="&lt;div style=&quot;font-size: 14px;&quot;&gt;2.0&lt;/div&gt;&lt;div&gt;Keluhan&lt;/div&gt;&lt;div&gt;&lt;br&gt;&lt;/div&gt;" style="ellipse;whiteSpace=wrap;html=1;aspect=fixed;fontSize=14;" parent="1" vertex="1">
          <mxGeometry x="1175" y="329" width="120" height="120" as="geometry" />
        </mxCell>
        <mxCell id="cNiK-8ckhrLXa3-nI2Zt-42" style="edgeStyle=none;curved=1;rounded=0;orthogonalLoop=1;jettySize=auto;html=1;entryX=0;entryY=0.5;entryDx=0;entryDy=0;fontSize=12;startSize=8;endSize=8;" parent="1" source="cNiK-8ckhrLXa3-nI2Zt-44" target="cNiK-8ckhrLXa3-nI2Zt-39" edge="1">
          <mxGeometry relative="1" as="geometry" />
        </mxCell>
        <mxCell id="cNiK-8ckhrLXa3-nI2Zt-78" style="edgeStyle=orthogonalEdgeStyle;rounded=0;orthogonalLoop=1;jettySize=auto;html=1;entryX=0.54;entryY=0.987;entryDx=0;entryDy=0;entryPerimeter=0;" parent="1" target="cNiK-8ckhrLXa3-nI2Zt-77" edge="1">
          <mxGeometry relative="1" as="geometry">
            <mxPoint x="1014.5" y="364" as="sourcePoint" />
            <mxPoint x="1014.4959999999999" y="269.006" as="targetPoint" />
            <Array as="points" />
          </mxGeometry>
        </mxCell>
        <mxCell id="fbhjmRC7C3WrphUypX53-9" style="edgeStyle=orthogonalEdgeStyle;rounded=0;orthogonalLoop=1;jettySize=auto;html=1;entryX=0;entryY=0.5;entryDx=0;entryDy=0;" parent="1" source="cNiK-8ckhrLXa3-nI2Zt-44" target="fbhjmRC7C3WrphUypX53-8" edge="1">
          <mxGeometry relative="1" as="geometry">
            <Array as="points">
              <mxPoint x="1000" y="730" />
            </Array>
          </mxGeometry>
        </mxCell>
        <mxCell id="cNiK-8ckhrLXa3-nI2Zt-44" value="Masyarakat" style="rounded=0;whiteSpace=wrap;html=1;fontSize=14;" parent="1" vertex="1">
          <mxGeometry x="930" y="364" width="120" height="50" as="geometry" />
        </mxCell>
        <mxCell id="cNiK-8ckhrLXa3-nI2Zt-50" value="data registrasi" style="text;html=1;align=center;verticalAlign=middle;whiteSpace=wrap;rounded=0;fontSize=12;" parent="1" vertex="1">
          <mxGeometry x="921" y="306" width="100" height="30" as="geometry" />
        </mxCell>
        <mxCell id="cNiK-8ckhrLXa3-nI2Zt-56" style="edgeStyle=none;curved=1;rounded=0;orthogonalLoop=1;jettySize=auto;html=1;exitX=0.5;exitY=1;exitDx=0;exitDy=0;fontSize=12;startSize=8;endSize=8;" parent="1" edge="1">
          <mxGeometry relative="1" as="geometry">
            <mxPoint x="1264" y="491" as="sourcePoint" />
            <mxPoint x="1264" y="491" as="targetPoint" />
          </mxGeometry>
        </mxCell>
        <mxCell id="cNiK-8ckhrLXa3-nI2Zt-91" style="edgeStyle=orthogonalEdgeStyle;rounded=0;orthogonalLoop=1;jettySize=auto;html=1;exitX=0.007;exitY=0.599;exitDx=0;exitDy=0;exitPerimeter=0;" parent="1" source="cNiK-8ckhrLXa3-nI2Zt-61" edge="1">
          <mxGeometry relative="1" as="geometry">
            <mxPoint x="1420" y="396" as="sourcePoint" />
            <mxPoint x="1295" y="396" as="targetPoint" />
          </mxGeometry>
        </mxCell>
        <mxCell id="fbhjmRC7C3WrphUypX53-10" style="edgeStyle=orthogonalEdgeStyle;rounded=0;orthogonalLoop=1;jettySize=auto;html=1;entryX=1;entryY=0.5;entryDx=0;entryDy=0;" parent="1" source="cNiK-8ckhrLXa3-nI2Zt-61" target="fbhjmRC7C3WrphUypX53-6" edge="1">
          <mxGeometry relative="1" as="geometry">
            <Array as="points">
              <mxPoint x="1549" y="561" />
            </Array>
          </mxGeometry>
        </mxCell>
        <mxCell id="cNiK-8ckhrLXa3-nI2Zt-61" value="Psikolog" style="rounded=0;whiteSpace=wrap;html=1;fontSize=14;" parent="1" vertex="1">
          <mxGeometry x="1480" y="366" width="137" height="50" as="geometry" />
        </mxCell>
        <mxCell id="cNiK-8ckhrLXa3-nI2Zt-64" style="edgeStyle=none;curved=1;rounded=0;orthogonalLoop=1;jettySize=auto;html=1;exitX=0.5;exitY=1;exitDx=0;exitDy=0;fontSize=12;startSize=8;endSize=8;" parent="1" edge="1">
          <mxGeometry relative="1" as="geometry">
            <mxPoint x="1300" y="293" as="sourcePoint" />
            <mxPoint x="1300" y="293" as="targetPoint" />
          </mxGeometry>
        </mxCell>
        <mxCell id="cNiK-8ckhrLXa3-nI2Zt-77" value="&lt;div style=&quot;font-size: 14px;&quot;&gt;1.0&lt;/div&gt;&lt;div style=&quot;font-size: 14px;&quot;&gt;Login &amp;amp; Pendaftaran&lt;/div&gt;&lt;div style=&quot;font-size: 14px;&quot;&gt;&lt;br style=&quot;font-size: 14px;&quot;&gt;&lt;/div&gt;" style="ellipse;whiteSpace=wrap;html=1;aspect=fixed;fontSize=14;" parent="1" vertex="1">
          <mxGeometry x="952" y="168" width="118" height="118" as="geometry" />
        </mxCell>
        <mxCell id="cNiK-8ckhrLXa3-nI2Zt-82" style="edgeStyle=orthogonalEdgeStyle;rounded=0;orthogonalLoop=1;jettySize=auto;html=1;startArrow=classic;startFill=1;endArrow=none;endFill=0;entryX=1.017;entryY=0.435;entryDx=0;entryDy=0;entryPerimeter=0;" parent="1" edge="1">
          <mxGeometry relative="1" as="geometry">
            <mxPoint x="1069.0059999999999" y="220.32999999999993" as="targetPoint" />
            <mxPoint x="1207" y="220" as="sourcePoint" />
          </mxGeometry>
        </mxCell>
        <mxCell id="cNiK-8ckhrLXa3-nI2Zt-84" value="&lt;div align=&quot;center&quot;&gt;nama, nik, hp, alamat&lt;br&gt;&lt;/div&gt;" style="text;html=1;align=center;verticalAlign=middle;whiteSpace=wrap;rounded=0;fontSize=12;" parent="1" vertex="1">
          <mxGeometry x="1089" y="187" width="100" height="30" as="geometry" />
        </mxCell>
        <mxCell id="cNiK-8ckhrLXa3-nI2Zt-86" value="data keluhan, DSS-21" style="text;html=1;align=center;verticalAlign=middle;whiteSpace=wrap;rounded=0;fontSize=12;" parent="1" vertex="1">
          <mxGeometry x="1060" y="355" width="100" height="30" as="geometry" />
        </mxCell>
        <mxCell id="cNiK-8ckhrLXa3-nI2Zt-92" value="data jadwal" style="text;html=1;align=center;verticalAlign=middle;whiteSpace=wrap;rounded=0;fontSize=12;" parent="1" vertex="1">
          <mxGeometry x="1339" y="369" width="110" height="30" as="geometry" />
        </mxCell>
        <mxCell id="fbhjmRC7C3WrphUypX53-11" style="edgeStyle=orthogonalEdgeStyle;rounded=0;orthogonalLoop=1;jettySize=auto;html=1;" parent="1" source="cNiK-8ckhrLXa3-nI2Zt-93" target="fbhjmRC7C3WrphUypX53-6" edge="1">
          <mxGeometry relative="1" as="geometry" />
        </mxCell>
        <mxCell id="cNiK-8ckhrLXa3-nI2Zt-93" value="&lt;div&gt;Tabel Keluhan&lt;br&gt;&lt;/div&gt;" style="shape=process;whiteSpace=wrap;html=1;backgroundOutline=1;" parent="1" vertex="1">
          <mxGeometry x="1299" y="461" width="166" height="32" as="geometry" />
        </mxCell>
        <mxCell id="fbhjmRC7C3WrphUypX53-5" value="data jadwal" style="text;html=1;align=center;verticalAlign=middle;whiteSpace=wrap;rounded=0;fontSize=12;" parent="1" vertex="1">
          <mxGeometry x="1060" y="383.5" width="100" height="30" as="geometry" />
        </mxCell>
        <mxCell id="fbhjmRC7C3WrphUypX53-15" style="edgeStyle=orthogonalEdgeStyle;rounded=0;orthogonalLoop=1;jettySize=auto;html=1;endArrow=none;endFill=0;" parent="1" source="fbhjmRC7C3WrphUypX53-6" target="fbhjmRC7C3WrphUypX53-14" edge="1">
          <mxGeometry relative="1" as="geometry">
            <Array as="points">
              <mxPoint x="1382" y="610" />
            </Array>
          </mxGeometry>
        </mxCell>
        <mxCell id="fbhjmRC7C3WrphUypX53-6" value="&lt;div style=&quot;font-size: 14px;&quot;&gt;3.0&lt;/div&gt;&lt;div&gt;Konseling&lt;br&gt;&lt;/div&gt;&lt;div&gt;&lt;br&gt;&lt;/div&gt;" style="ellipse;whiteSpace=wrap;html=1;aspect=fixed;fontSize=14;" parent="1" vertex="1">
          <mxGeometry x="1175" y="501" width="120" height="120" as="geometry" />
        </mxCell>
        <mxCell id="fbhjmRC7C3WrphUypX53-7" style="edgeStyle=orthogonalEdgeStyle;rounded=0;orthogonalLoop=1;jettySize=auto;html=1;entryX=0.701;entryY=0.954;entryDx=0;entryDy=0;entryPerimeter=0;" parent="1" source="fbhjmRC7C3WrphUypX53-6" target="cNiK-8ckhrLXa3-nI2Zt-44" edge="1">
          <mxGeometry relative="1" as="geometry" />
        </mxCell>
        <mxCell id="fbhjmRC7C3WrphUypX53-18" style="edgeStyle=orthogonalEdgeStyle;rounded=0;orthogonalLoop=1;jettySize=auto;html=1;endArrow=none;endFill=0;" parent="1" source="fbhjmRC7C3WrphUypX53-8" target="fbhjmRC7C3WrphUypX53-17" edge="1">
          <mxGeometry relative="1" as="geometry">
            <Array as="points">
              <mxPoint x="1382" y="770" />
            </Array>
          </mxGeometry>
        </mxCell>
        <mxCell id="fbhjmRC7C3WrphUypX53-8" value="&lt;div style=&quot;font-size: 14px;&quot;&gt;4.0&lt;/div&gt;&lt;div&gt;Evaluasi &amp;amp; Testimoni&lt;br&gt;&lt;/div&gt;&lt;div&gt;&lt;br&gt;&lt;/div&gt;" style="ellipse;whiteSpace=wrap;html=1;aspect=fixed;fontSize=14;" parent="1" vertex="1">
          <mxGeometry x="1175" y="670" width="120" height="120" as="geometry" />
        </mxCell>
        <mxCell id="fbhjmRC7C3WrphUypX53-13" style="edgeStyle=orthogonalEdgeStyle;rounded=0;orthogonalLoop=1;jettySize=auto;html=1;entryX=0.616;entryY=0.956;entryDx=0;entryDy=0;entryPerimeter=0;" parent="1" edge="1">
          <mxGeometry relative="1" as="geometry">
            <mxPoint x="1295" y="730.2" as="sourcePoint" />
            <mxPoint x="1564.3919999999998" y="414.00000000000006" as="targetPoint" />
          </mxGeometry>
        </mxCell>
        <mxCell id="fbhjmRC7C3WrphUypX53-19" style="edgeStyle=orthogonalEdgeStyle;rounded=0;orthogonalLoop=1;jettySize=auto;html=1;entryX=0.5;entryY=0;entryDx=0;entryDy=0;" parent="1" source="fbhjmRC7C3WrphUypX53-14" target="fbhjmRC7C3WrphUypX53-8" edge="1">
          <mxGeometry relative="1" as="geometry">
            <Array as="points">
              <mxPoint x="1235" y="649" />
            </Array>
          </mxGeometry>
        </mxCell>
        <mxCell id="fbhjmRC7C3WrphUypX53-14" value="&lt;div&gt;Tabel Konseling&lt;br&gt;&lt;/div&gt;" style="shape=process;whiteSpace=wrap;html=1;backgroundOutline=1;" parent="1" vertex="1">
          <mxGeometry x="1299" y="633" width="166" height="32" as="geometry" />
        </mxCell>
        <mxCell id="fbhjmRC7C3WrphUypX53-17" value="&lt;div&gt;Tabel Evaluasi&lt;br&gt;&lt;/div&gt;" style="shape=process;whiteSpace=wrap;html=1;backgroundOutline=1;" parent="1" vertex="1">
          <mxGeometry x="1299" y="795" width="166" height="32" as="geometry" />
        </mxCell>
        <mxCell id="fbhjmRC7C3WrphUypX53-20" value="hasil konseling" style="text;html=1;align=center;verticalAlign=middle;whiteSpace=wrap;rounded=0;fontSize=12;" parent="1" vertex="1">
          <mxGeometry x="1047" y="532" width="100" height="30" as="geometry" />
        </mxCell>
        <mxCell id="fbhjmRC7C3WrphUypX53-21" value="data konseling" style="text;html=1;align=center;verticalAlign=middle;whiteSpace=wrap;rounded=0;fontSize=12;" parent="1" vertex="1">
          <mxGeometry x="1369" y="533" width="100" height="30" as="geometry" />
        </mxCell>
        <mxCell id="fbhjmRC7C3WrphUypX53-22" value="hasil evaluasi" style="text;html=1;align=center;verticalAlign=middle;whiteSpace=wrap;rounded=0;fontSize=12;" parent="1" vertex="1">
          <mxGeometry x="1365" y="700" width="100" height="30" as="geometry" />
        </mxCell>
        <mxCell id="fbhjmRC7C3WrphUypX53-24" value="data evaluasi" style="text;html=1;align=center;verticalAlign=middle;whiteSpace=wrap;rounded=0;fontSize=12;" parent="1" vertex="1">
          <mxGeometry x="1040" y="700" width="100" height="30" as="geometry" />
        </mxCell>
        <mxCell id="fbhjmRC7C3WrphUypX53-25" value="" style="edgeStyle=none;curved=1;rounded=0;orthogonalLoop=1;jettySize=auto;html=1;fontSize=12;startSize=8;endSize=8;endArrow=none;endFill=0;startArrow=classic;startFill=1;" parent="1" target="cNiK-8ckhrLXa3-nI2Zt-35" edge="1">
          <mxGeometry relative="1" as="geometry">
            <mxPoint x="1234.66" y="239" as="targetPoint" />
            <mxPoint x="1234.66" y="329" as="sourcePoint" />
          </mxGeometry>
        </mxCell>
        <mxCell id="cNiK-8ckhrLXa3-nI2Zt-35" value="" style="shape=cylinder3;whiteSpace=wrap;html=1;boundedLbl=1;backgroundOutline=1;size=15;" parent="1" vertex="1">
          <mxGeometry x="1205" y="187" width="60" height="80" as="geometry" />
        </mxCell>
        <mxCell id="fbhjmRC7C3WrphUypX53-26" value="&lt;div&gt;Tabel Jadwal&lt;br&gt;&lt;/div&gt;" style="shape=process;whiteSpace=wrap;html=1;backgroundOutline=1;" parent="1" vertex="1">
          <mxGeometry x="1299" y="297" width="166" height="32" as="geometry" />
        </mxCell>
        <mxCell id="cCiW9AgQX1RRJQbk4KsR-2" value="masyarakat" style="swimlane;fontStyle=0;childLayout=stackLayout;horizontal=1;startSize=30;horizontalStack=0;resizeParent=1;resizeParentMax=0;resizeLast=0;collapsible=1;marginBottom=0;whiteSpace=wrap;html=1;" vertex="1" parent="1">
          <mxGeometry x="160" y="207" width="131" height="210" as="geometry" />
        </mxCell>
        <mxCell id="cCiW9AgQX1RRJQbk4KsR-3" value="id" style="text;strokeColor=none;fillColor=none;align=left;verticalAlign=middle;spacingLeft=4;spacingRight=4;overflow=hidden;points=[[0,0.5],[1,0.5]];portConstraint=eastwest;rotatable=0;whiteSpace=wrap;html=1;" vertex="1" parent="cCiW9AgQX1RRJQbk4KsR-2">
          <mxGeometry y="30" width="131" height="20" as="geometry" />
        </mxCell>
        <mxCell id="cCiW9AgQX1RRJQbk4KsR-4" value="nik" style="text;strokeColor=none;fillColor=none;align=left;verticalAlign=middle;spacingLeft=4;spacingRight=4;overflow=hidden;points=[[0,0.5],[1,0.5]];portConstraint=eastwest;rotatable=0;whiteSpace=wrap;html=1;" vertex="1" parent="cCiW9AgQX1RRJQbk4KsR-2">
          <mxGeometry y="50" width="131" height="20" as="geometry" />
        </mxCell>
        <mxCell id="cCiW9AgQX1RRJQbk4KsR-5" value="nama" style="text;strokeColor=none;fillColor=none;align=left;verticalAlign=middle;spacingLeft=4;spacingRight=4;overflow=hidden;points=[[0,0.5],[1,0.5]];portConstraint=eastwest;rotatable=0;whiteSpace=wrap;html=1;" vertex="1" parent="cCiW9AgQX1RRJQbk4KsR-2">
          <mxGeometry y="70" width="131" height="20" as="geometry" />
        </mxCell>
        <mxCell id="cCiW9AgQX1RRJQbk4KsR-54" value="tgl_lahir" style="text;strokeColor=none;fillColor=none;align=left;verticalAlign=middle;spacingLeft=4;spacingRight=4;overflow=hidden;points=[[0,0.5],[1,0.5]];portConstraint=eastwest;rotatable=0;whiteSpace=wrap;html=1;" vertex="1" parent="cCiW9AgQX1RRJQbk4KsR-2">
          <mxGeometry y="90" width="131" height="20" as="geometry" />
        </mxCell>
        <mxCell id="cCiW9AgQX1RRJQbk4KsR-13" value="alamat" style="text;strokeColor=none;fillColor=none;align=left;verticalAlign=middle;spacingLeft=4;spacingRight=4;overflow=hidden;points=[[0,0.5],[1,0.5]];portConstraint=eastwest;rotatable=0;whiteSpace=wrap;html=1;" vertex="1" parent="cCiW9AgQX1RRJQbk4KsR-2">
          <mxGeometry y="110" width="131" height="20" as="geometry" />
        </mxCell>
        <mxCell id="cCiW9AgQX1RRJQbk4KsR-68" value="desa_id" style="text;strokeColor=none;fillColor=none;align=left;verticalAlign=middle;spacingLeft=4;spacingRight=4;overflow=hidden;points=[[0,0.5],[1,0.5]];portConstraint=eastwest;rotatable=0;whiteSpace=wrap;html=1;" vertex="1" parent="cCiW9AgQX1RRJQbk4KsR-2">
          <mxGeometry y="130" width="131" height="20" as="geometry" />
        </mxCell>
        <mxCell id="cCiW9AgQX1RRJQbk4KsR-69" value="kec_id" style="text;strokeColor=none;fillColor=none;align=left;verticalAlign=middle;spacingLeft=4;spacingRight=4;overflow=hidden;points=[[0,0.5],[1,0.5]];portConstraint=eastwest;rotatable=0;whiteSpace=wrap;html=1;" vertex="1" parent="cCiW9AgQX1RRJQbk4KsR-2">
          <mxGeometry y="150" width="131" height="20" as="geometry" />
        </mxCell>
        <mxCell id="cCiW9AgQX1RRJQbk4KsR-12" value="hp" style="text;strokeColor=none;fillColor=none;align=left;verticalAlign=middle;spacingLeft=4;spacingRight=4;overflow=hidden;points=[[0,0.5],[1,0.5]];portConstraint=eastwest;rotatable=0;whiteSpace=wrap;html=1;" vertex="1" parent="cCiW9AgQX1RRJQbk4KsR-2">
          <mxGeometry y="170" width="131" height="20" as="geometry" />
        </mxCell>
        <mxCell id="cCiW9AgQX1RRJQbk4KsR-18" value="user_id" style="text;strokeColor=none;fillColor=none;align=left;verticalAlign=middle;spacingLeft=4;spacingRight=4;overflow=hidden;points=[[0,0.5],[1,0.5]];portConstraint=eastwest;rotatable=0;whiteSpace=wrap;html=1;" vertex="1" parent="cCiW9AgQX1RRJQbk4KsR-2">
          <mxGeometry y="190" width="131" height="20" as="geometry" />
        </mxCell>
        <mxCell id="cCiW9AgQX1RRJQbk4KsR-6" value="psikolog" style="swimlane;fontStyle=0;childLayout=stackLayout;horizontal=1;startSize=30;horizontalStack=0;resizeParent=1;resizeParentMax=0;resizeLast=0;collapsible=1;marginBottom=0;whiteSpace=wrap;html=1;" vertex="1" parent="1">
          <mxGeometry x="560" y="206" width="131" height="130" as="geometry" />
        </mxCell>
        <mxCell id="cCiW9AgQX1RRJQbk4KsR-7" value="id" style="text;strokeColor=none;fillColor=none;align=left;verticalAlign=middle;spacingLeft=4;spacingRight=4;overflow=hidden;points=[[0,0.5],[1,0.5]];portConstraint=eastwest;rotatable=0;whiteSpace=wrap;html=1;" vertex="1" parent="cCiW9AgQX1RRJQbk4KsR-6">
          <mxGeometry y="30" width="131" height="20" as="geometry" />
        </mxCell>
        <mxCell id="cCiW9AgQX1RRJQbk4KsR-8" value="nik" style="text;strokeColor=none;fillColor=none;align=left;verticalAlign=middle;spacingLeft=4;spacingRight=4;overflow=hidden;points=[[0,0.5],[1,0.5]];portConstraint=eastwest;rotatable=0;whiteSpace=wrap;html=1;" vertex="1" parent="cCiW9AgQX1RRJQbk4KsR-6">
          <mxGeometry y="50" width="131" height="20" as="geometry" />
        </mxCell>
        <mxCell id="cCiW9AgQX1RRJQbk4KsR-9" value="nama" style="text;strokeColor=none;fillColor=none;align=left;verticalAlign=middle;spacingLeft=4;spacingRight=4;overflow=hidden;points=[[0,0.5],[1,0.5]];portConstraint=eastwest;rotatable=0;whiteSpace=wrap;html=1;" vertex="1" parent="cCiW9AgQX1RRJQbk4KsR-6">
          <mxGeometry y="70" width="131" height="20" as="geometry" />
        </mxCell>
        <mxCell id="cCiW9AgQX1RRJQbk4KsR-23" value="hp" style="text;strokeColor=none;fillColor=none;align=left;verticalAlign=middle;spacingLeft=4;spacingRight=4;overflow=hidden;points=[[0,0.5],[1,0.5]];portConstraint=eastwest;rotatable=0;whiteSpace=wrap;html=1;" vertex="1" parent="cCiW9AgQX1RRJQbk4KsR-6">
          <mxGeometry y="90" width="131" height="20" as="geometry" />
        </mxCell>
        <mxCell id="cCiW9AgQX1RRJQbk4KsR-52" value="user_id" style="text;strokeColor=none;fillColor=none;align=left;verticalAlign=middle;spacingLeft=4;spacingRight=4;overflow=hidden;points=[[0,0.5],[1,0.5]];portConstraint=eastwest;rotatable=0;whiteSpace=wrap;html=1;" vertex="1" parent="cCiW9AgQX1RRJQbk4KsR-6">
          <mxGeometry y="110" width="131" height="20" as="geometry" />
        </mxCell>
        <mxCell id="cCiW9AgQX1RRJQbk4KsR-15" value="users" style="swimlane;fontStyle=0;childLayout=stackLayout;horizontal=1;startSize=30;horizontalStack=0;resizeParent=1;resizeParentMax=0;resizeLast=0;collapsible=1;marginBottom=0;whiteSpace=wrap;html=1;" vertex="1" parent="1">
          <mxGeometry x="360" y="207" width="131" height="130" as="geometry" />
        </mxCell>
        <mxCell id="cCiW9AgQX1RRJQbk4KsR-16" value="id" style="text;strokeColor=none;fillColor=none;align=left;verticalAlign=middle;spacingLeft=4;spacingRight=4;overflow=hidden;points=[[0,0.5],[1,0.5]];portConstraint=eastwest;rotatable=0;whiteSpace=wrap;html=1;" vertex="1" parent="cCiW9AgQX1RRJQbk4KsR-15">
          <mxGeometry y="30" width="131" height="20" as="geometry" />
        </mxCell>
        <mxCell id="cCiW9AgQX1RRJQbk4KsR-17" value="username" style="text;strokeColor=none;fillColor=none;align=left;verticalAlign=middle;spacingLeft=4;spacingRight=4;overflow=hidden;points=[[0,0.5],[1,0.5]];portConstraint=eastwest;rotatable=0;whiteSpace=wrap;html=1;" vertex="1" parent="cCiW9AgQX1RRJQbk4KsR-15">
          <mxGeometry y="50" width="131" height="20" as="geometry" />
        </mxCell>
        <mxCell id="cCiW9AgQX1RRJQbk4KsR-22" value="email" style="text;strokeColor=none;fillColor=none;align=left;verticalAlign=middle;spacingLeft=4;spacingRight=4;overflow=hidden;points=[[0,0.5],[1,0.5]];portConstraint=eastwest;rotatable=0;whiteSpace=wrap;html=1;" vertex="1" parent="cCiW9AgQX1RRJQbk4KsR-15">
          <mxGeometry y="70" width="131" height="20" as="geometry" />
        </mxCell>
        <mxCell id="cCiW9AgQX1RRJQbk4KsR-19" value="password" style="text;strokeColor=none;fillColor=none;align=left;verticalAlign=middle;spacingLeft=4;spacingRight=4;overflow=hidden;points=[[0,0.5],[1,0.5]];portConstraint=eastwest;rotatable=0;whiteSpace=wrap;html=1;" vertex="1" parent="cCiW9AgQX1RRJQbk4KsR-15">
          <mxGeometry y="90" width="131" height="20" as="geometry" />
        </mxCell>
        <mxCell id="cCiW9AgQX1RRJQbk4KsR-20" value="level" style="text;strokeColor=none;fillColor=none;align=left;verticalAlign=middle;spacingLeft=4;spacingRight=4;overflow=hidden;points=[[0,0.5],[1,0.5]];portConstraint=eastwest;rotatable=0;whiteSpace=wrap;html=1;" vertex="1" parent="cCiW9AgQX1RRJQbk4KsR-15">
          <mxGeometry y="110" width="131" height="20" as="geometry" />
        </mxCell>
        <mxCell id="cCiW9AgQX1RRJQbk4KsR-24" value="jadwal" style="swimlane;fontStyle=0;childLayout=stackLayout;horizontal=1;startSize=30;horizontalStack=0;resizeParent=1;resizeParentMax=0;resizeLast=0;collapsible=1;marginBottom=0;whiteSpace=wrap;html=1;" vertex="1" parent="1">
          <mxGeometry x="160" y="520" width="131" height="130" as="geometry" />
        </mxCell>
        <mxCell id="cCiW9AgQX1RRJQbk4KsR-25" value="id" style="text;strokeColor=none;fillColor=none;align=left;verticalAlign=middle;spacingLeft=4;spacingRight=4;overflow=hidden;points=[[0,0.5],[1,0.5]];portConstraint=eastwest;rotatable=0;whiteSpace=wrap;html=1;" vertex="1" parent="cCiW9AgQX1RRJQbk4KsR-24">
          <mxGeometry y="30" width="131" height="20" as="geometry" />
        </mxCell>
        <mxCell id="cCiW9AgQX1RRJQbk4KsR-26" value="tgl" style="text;strokeColor=none;fillColor=none;align=left;verticalAlign=middle;spacingLeft=4;spacingRight=4;overflow=hidden;points=[[0,0.5],[1,0.5]];portConstraint=eastwest;rotatable=0;whiteSpace=wrap;html=1;" vertex="1" parent="cCiW9AgQX1RRJQbk4KsR-24">
          <mxGeometry y="50" width="131" height="20" as="geometry" />
        </mxCell>
        <mxCell id="cCiW9AgQX1RRJQbk4KsR-27" value="waktu" style="text;strokeColor=none;fillColor=none;align=left;verticalAlign=middle;spacingLeft=4;spacingRight=4;overflow=hidden;points=[[0,0.5],[1,0.5]];portConstraint=eastwest;rotatable=0;whiteSpace=wrap;html=1;" vertex="1" parent="cCiW9AgQX1RRJQbk4KsR-24">
          <mxGeometry y="70" width="131" height="20" as="geometry" />
        </mxCell>
        <mxCell id="cCiW9AgQX1RRJQbk4KsR-28" value="kuota" style="text;strokeColor=none;fillColor=none;align=left;verticalAlign=middle;spacingLeft=4;spacingRight=4;overflow=hidden;points=[[0,0.5],[1,0.5]];portConstraint=eastwest;rotatable=0;whiteSpace=wrap;html=1;" vertex="1" parent="cCiW9AgQX1RRJQbk4KsR-24">
          <mxGeometry y="90" width="131" height="20" as="geometry" />
        </mxCell>
        <mxCell id="cCiW9AgQX1RRJQbk4KsR-29" value="psikolog_id" style="text;strokeColor=none;fillColor=none;align=left;verticalAlign=middle;spacingLeft=4;spacingRight=4;overflow=hidden;points=[[0,0.5],[1,0.5]];portConstraint=eastwest;rotatable=0;whiteSpace=wrap;html=1;" vertex="1" parent="cCiW9AgQX1RRJQbk4KsR-24">
          <mxGeometry y="110" width="131" height="20" as="geometry" />
        </mxCell>
        <mxCell id="cCiW9AgQX1RRJQbk4KsR-31" value="keluhan" style="swimlane;fontStyle=0;childLayout=stackLayout;horizontal=1;startSize=30;horizontalStack=0;resizeParent=1;resizeParentMax=0;resizeLast=0;collapsible=1;marginBottom=0;whiteSpace=wrap;html=1;" vertex="1" parent="1">
          <mxGeometry x="360" y="520" width="131" height="170" as="geometry" />
        </mxCell>
        <mxCell id="cCiW9AgQX1RRJQbk4KsR-32" value="id" style="text;strokeColor=none;fillColor=none;align=left;verticalAlign=middle;spacingLeft=4;spacingRight=4;overflow=hidden;points=[[0,0.5],[1,0.5]];portConstraint=eastwest;rotatable=0;whiteSpace=wrap;html=1;" vertex="1" parent="cCiW9AgQX1RRJQbk4KsR-31">
          <mxGeometry y="30" width="131" height="20" as="geometry" />
        </mxCell>
        <mxCell id="cCiW9AgQX1RRJQbk4KsR-33" value="dass_hasil_id" style="text;strokeColor=none;fillColor=none;align=left;verticalAlign=middle;spacingLeft=4;spacingRight=4;overflow=hidden;points=[[0,0.5],[1,0.5]];portConstraint=eastwest;rotatable=0;whiteSpace=wrap;html=1;" vertex="1" parent="cCiW9AgQX1RRJQbk4KsR-31">
          <mxGeometry y="50" width="131" height="20" as="geometry" />
        </mxCell>
        <mxCell id="cCiW9AgQX1RRJQbk4KsR-71" value="keluhan" style="text;strokeColor=none;fillColor=none;align=left;verticalAlign=middle;spacingLeft=4;spacingRight=4;overflow=hidden;points=[[0,0.5],[1,0.5]];portConstraint=eastwest;rotatable=0;whiteSpace=wrap;html=1;" vertex="1" parent="cCiW9AgQX1RRJQbk4KsR-31">
          <mxGeometry y="70" width="131" height="20" as="geometry" />
        </mxCell>
        <mxCell id="cCiW9AgQX1RRJQbk4KsR-72" value="waktu_kapan" style="text;strokeColor=none;fillColor=none;align=left;verticalAlign=middle;spacingLeft=4;spacingRight=4;overflow=hidden;points=[[0,0.5],[1,0.5]];portConstraint=eastwest;rotatable=0;whiteSpace=wrap;html=1;" vertex="1" parent="cCiW9AgQX1RRJQbk4KsR-31">
          <mxGeometry y="90" width="131" height="20" as="geometry" />
        </mxCell>
        <mxCell id="cCiW9AgQX1RRJQbk4KsR-73" value="nilai_mengganggu" style="text;strokeColor=none;fillColor=none;align=left;verticalAlign=middle;spacingLeft=4;spacingRight=4;overflow=hidden;points=[[0,0.5],[1,0.5]];portConstraint=eastwest;rotatable=0;whiteSpace=wrap;html=1;" vertex="1" parent="cCiW9AgQX1RRJQbk4KsR-31">
          <mxGeometry y="110" width="131" height="20" as="geometry" />
        </mxCell>
        <mxCell id="cCiW9AgQX1RRJQbk4KsR-70" value="jadwal_id" style="text;strokeColor=none;fillColor=none;align=left;verticalAlign=middle;spacingLeft=4;spacingRight=4;overflow=hidden;points=[[0,0.5],[1,0.5]];portConstraint=eastwest;rotatable=0;whiteSpace=wrap;html=1;" vertex="1" parent="cCiW9AgQX1RRJQbk4KsR-31">
          <mxGeometry y="130" width="131" height="20" as="geometry" />
        </mxCell>
        <mxCell id="cCiW9AgQX1RRJQbk4KsR-37" value="mas_id" style="text;strokeColor=none;fillColor=none;align=left;verticalAlign=middle;spacingLeft=4;spacingRight=4;overflow=hidden;points=[[0,0.5],[1,0.5]];portConstraint=eastwest;rotatable=0;whiteSpace=wrap;html=1;" vertex="1" parent="cCiW9AgQX1RRJQbk4KsR-31">
          <mxGeometry y="150" width="131" height="20" as="geometry" />
        </mxCell>
        <mxCell id="cCiW9AgQX1RRJQbk4KsR-38" value="konseling" style="swimlane;fontStyle=0;childLayout=stackLayout;horizontal=1;startSize=30;horizontalStack=0;resizeParent=1;resizeParentMax=0;resizeLast=0;collapsible=1;marginBottom=0;whiteSpace=wrap;html=1;" vertex="1" parent="1">
          <mxGeometry x="560" y="520" width="131" height="150" as="geometry" />
        </mxCell>
        <mxCell id="cCiW9AgQX1RRJQbk4KsR-39" value="id" style="text;strokeColor=none;fillColor=none;align=left;verticalAlign=middle;spacingLeft=4;spacingRight=4;overflow=hidden;points=[[0,0.5],[1,0.5]];portConstraint=eastwest;rotatable=0;whiteSpace=wrap;html=1;" vertex="1" parent="cCiW9AgQX1RRJQbk4KsR-38">
          <mxGeometry y="30" width="131" height="20" as="geometry" />
        </mxCell>
        <mxCell id="cCiW9AgQX1RRJQbk4KsR-40" value="deskripsi_hasil" style="text;strokeColor=none;fillColor=none;align=left;verticalAlign=middle;spacingLeft=4;spacingRight=4;overflow=hidden;points=[[0,0.5],[1,0.5]];portConstraint=eastwest;rotatable=0;whiteSpace=wrap;html=1;" vertex="1" parent="cCiW9AgQX1RRJQbk4KsR-38">
          <mxGeometry y="50" width="131" height="20" as="geometry" />
        </mxCell>
        <mxCell id="cCiW9AgQX1RRJQbk4KsR-42" value="upload_file" style="text;strokeColor=none;fillColor=none;align=left;verticalAlign=middle;spacingLeft=4;spacingRight=4;overflow=hidden;points=[[0,0.5],[1,0.5]];portConstraint=eastwest;rotatable=0;whiteSpace=wrap;html=1;" vertex="1" parent="cCiW9AgQX1RRJQbk4KsR-38">
          <mxGeometry y="70" width="131" height="20" as="geometry" />
        </mxCell>
        <mxCell id="cCiW9AgQX1RRJQbk4KsR-76" value="status" style="text;strokeColor=none;fillColor=none;align=left;verticalAlign=middle;spacingLeft=4;spacingRight=4;overflow=hidden;points=[[0,0.5],[1,0.5]];portConstraint=eastwest;rotatable=0;whiteSpace=wrap;html=1;" vertex="1" parent="cCiW9AgQX1RRJQbk4KsR-38">
          <mxGeometry y="90" width="131" height="20" as="geometry" />
        </mxCell>
        <mxCell id="cCiW9AgQX1RRJQbk4KsR-43" value="psikolog_id" style="text;strokeColor=none;fillColor=none;align=left;verticalAlign=middle;spacingLeft=4;spacingRight=4;overflow=hidden;points=[[0,0.5],[1,0.5]];portConstraint=eastwest;rotatable=0;whiteSpace=wrap;html=1;" vertex="1" parent="cCiW9AgQX1RRJQbk4KsR-38">
          <mxGeometry y="110" width="131" height="20" as="geometry" />
        </mxCell>
        <mxCell id="cCiW9AgQX1RRJQbk4KsR-44" value="mas_id" style="text;strokeColor=none;fillColor=none;align=left;verticalAlign=middle;spacingLeft=4;spacingRight=4;overflow=hidden;points=[[0,0.5],[1,0.5]];portConstraint=eastwest;rotatable=0;whiteSpace=wrap;html=1;" vertex="1" parent="cCiW9AgQX1RRJQbk4KsR-38">
          <mxGeometry y="130" width="131" height="20" as="geometry" />
        </mxCell>
        <mxCell id="cCiW9AgQX1RRJQbk4KsR-45" value="evaluasi" style="swimlane;fontStyle=0;childLayout=stackLayout;horizontal=1;startSize=30;horizontalStack=0;resizeParent=1;resizeParentMax=0;resizeLast=0;collapsible=1;marginBottom=0;whiteSpace=wrap;html=1;" vertex="1" parent="1">
          <mxGeometry x="160" y="705" width="131" height="130" as="geometry" />
        </mxCell>
        <mxCell id="cCiW9AgQX1RRJQbk4KsR-46" value="id" style="text;strokeColor=none;fillColor=none;align=left;verticalAlign=middle;spacingLeft=4;spacingRight=4;overflow=hidden;points=[[0,0.5],[1,0.5]];portConstraint=eastwest;rotatable=0;whiteSpace=wrap;html=1;" vertex="1" parent="cCiW9AgQX1RRJQbk4KsR-45">
          <mxGeometry y="30" width="131" height="20" as="geometry" />
        </mxCell>
        <mxCell id="cCiW9AgQX1RRJQbk4KsR-47" value="nilai_layanan" style="text;strokeColor=none;fillColor=none;align=left;verticalAlign=middle;spacingLeft=4;spacingRight=4;overflow=hidden;points=[[0,0.5],[1,0.5]];portConstraint=eastwest;rotatable=0;whiteSpace=wrap;html=1;" vertex="1" parent="cCiW9AgQX1RRJQbk4KsR-45">
          <mxGeometry y="50" width="131" height="20" as="geometry" />
        </mxCell>
        <mxCell id="cCiW9AgQX1RRJQbk4KsR-74" value="nilai_keluhan" style="text;strokeColor=none;fillColor=none;align=left;verticalAlign=middle;spacingLeft=4;spacingRight=4;overflow=hidden;points=[[0,0.5],[1,0.5]];portConstraint=eastwest;rotatable=0;whiteSpace=wrap;html=1;" vertex="1" parent="cCiW9AgQX1RRJQbk4KsR-45">
          <mxGeometry y="70" width="131" height="20" as="geometry" />
        </mxCell>
        <mxCell id="cCiW9AgQX1RRJQbk4KsR-51" value="mas_id" style="text;strokeColor=none;fillColor=none;align=left;verticalAlign=middle;spacingLeft=4;spacingRight=4;overflow=hidden;points=[[0,0.5],[1,0.5]];portConstraint=eastwest;rotatable=0;whiteSpace=wrap;html=1;" vertex="1" parent="cCiW9AgQX1RRJQbk4KsR-45">
          <mxGeometry y="90" width="131" height="20" as="geometry" />
        </mxCell>
        <mxCell id="cCiW9AgQX1RRJQbk4KsR-75" value="psikolog_id" style="text;strokeColor=none;fillColor=none;align=left;verticalAlign=middle;spacingLeft=4;spacingRight=4;overflow=hidden;points=[[0,0.5],[1,0.5]];portConstraint=eastwest;rotatable=0;whiteSpace=wrap;html=1;" vertex="1" parent="cCiW9AgQX1RRJQbk4KsR-45">
          <mxGeometry y="110" width="131" height="20" as="geometry" />
        </mxCell>
        <mxCell id="cCiW9AgQX1RRJQbk4KsR-55" value="dass_pertanyaan" style="swimlane;fontStyle=0;childLayout=stackLayout;horizontal=1;startSize=30;horizontalStack=0;resizeParent=1;resizeParentMax=0;resizeLast=0;collapsible=1;marginBottom=0;whiteSpace=wrap;html=1;" vertex="1" parent="1">
          <mxGeometry x="560" y="720" width="131" height="90" as="geometry" />
        </mxCell>
        <mxCell id="cCiW9AgQX1RRJQbk4KsR-56" value="id" style="text;strokeColor=none;fillColor=none;align=left;verticalAlign=middle;spacingLeft=4;spacingRight=4;overflow=hidden;points=[[0,0.5],[1,0.5]];portConstraint=eastwest;rotatable=0;whiteSpace=wrap;html=1;" vertex="1" parent="cCiW9AgQX1RRJQbk4KsR-55">
          <mxGeometry y="30" width="131" height="20" as="geometry" />
        </mxCell>
        <mxCell id="cCiW9AgQX1RRJQbk4KsR-57" value="pernyataan" style="text;strokeColor=none;fillColor=none;align=left;verticalAlign=middle;spacingLeft=4;spacingRight=4;overflow=hidden;points=[[0,0.5],[1,0.5]];portConstraint=eastwest;rotatable=0;whiteSpace=wrap;html=1;" vertex="1" parent="cCiW9AgQX1RRJQbk4KsR-55">
          <mxGeometry y="50" width="131" height="20" as="geometry" />
        </mxCell>
        <mxCell id="cCiW9AgQX1RRJQbk4KsR-58" value="kode" style="text;strokeColor=none;fillColor=none;align=left;verticalAlign=middle;spacingLeft=4;spacingRight=4;overflow=hidden;points=[[0,0.5],[1,0.5]];portConstraint=eastwest;rotatable=0;whiteSpace=wrap;html=1;" vertex="1" parent="cCiW9AgQX1RRJQbk4KsR-55">
          <mxGeometry y="70" width="131" height="20" as="geometry" />
        </mxCell>
        <mxCell id="cCiW9AgQX1RRJQbk4KsR-61" value="dass_hasil" style="swimlane;fontStyle=0;childLayout=stackLayout;horizontal=1;startSize=30;horizontalStack=0;resizeParent=1;resizeParentMax=0;resizeLast=0;collapsible=1;marginBottom=0;whiteSpace=wrap;html=1;" vertex="1" parent="1">
          <mxGeometry x="560" y="857" width="131" height="150" as="geometry" />
        </mxCell>
        <mxCell id="cCiW9AgQX1RRJQbk4KsR-62" value="id" style="text;strokeColor=none;fillColor=none;align=left;verticalAlign=middle;spacingLeft=4;spacingRight=4;overflow=hidden;points=[[0,0.5],[1,0.5]];portConstraint=eastwest;rotatable=0;whiteSpace=wrap;html=1;" vertex="1" parent="cCiW9AgQX1RRJQbk4KsR-61">
          <mxGeometry y="30" width="131" height="20" as="geometry" />
        </mxCell>
        <mxCell id="cCiW9AgQX1RRJQbk4KsR-65" value="mas_id" style="text;strokeColor=none;fillColor=none;align=left;verticalAlign=middle;spacingLeft=4;spacingRight=4;overflow=hidden;points=[[0,0.5],[1,0.5]];portConstraint=eastwest;rotatable=0;whiteSpace=wrap;html=1;" vertex="1" parent="cCiW9AgQX1RRJQbk4KsR-61">
          <mxGeometry y="50" width="131" height="20" as="geometry" />
        </mxCell>
        <mxCell id="cCiW9AgQX1RRJQbk4KsR-63" value="nilai_d" style="text;strokeColor=none;fillColor=none;align=left;verticalAlign=middle;spacingLeft=4;spacingRight=4;overflow=hidden;points=[[0,0.5],[1,0.5]];portConstraint=eastwest;rotatable=0;whiteSpace=wrap;html=1;" vertex="1" parent="cCiW9AgQX1RRJQbk4KsR-61">
          <mxGeometry y="70" width="131" height="20" as="geometry" />
        </mxCell>
        <mxCell id="cCiW9AgQX1RRJQbk4KsR-64" value="nilai_a" style="text;strokeColor=none;fillColor=none;align=left;verticalAlign=middle;spacingLeft=4;spacingRight=4;overflow=hidden;points=[[0,0.5],[1,0.5]];portConstraint=eastwest;rotatable=0;whiteSpace=wrap;html=1;" vertex="1" parent="cCiW9AgQX1RRJQbk4KsR-61">
          <mxGeometry y="90" width="131" height="20" as="geometry" />
        </mxCell>
        <mxCell id="cCiW9AgQX1RRJQbk4KsR-66" value="nilai_s" style="text;strokeColor=none;fillColor=none;align=left;verticalAlign=middle;spacingLeft=4;spacingRight=4;overflow=hidden;points=[[0,0.5],[1,0.5]];portConstraint=eastwest;rotatable=0;whiteSpace=wrap;html=1;" vertex="1" parent="cCiW9AgQX1RRJQbk4KsR-61">
          <mxGeometry y="110" width="131" height="20" as="geometry" />
        </mxCell>
        <mxCell id="cCiW9AgQX1RRJQbk4KsR-67" value="tgl_survei" style="text;strokeColor=none;fillColor=none;align=left;verticalAlign=middle;spacingLeft=4;spacingRight=4;overflow=hidden;points=[[0,0.5],[1,0.5]];portConstraint=eastwest;rotatable=0;whiteSpace=wrap;html=1;" vertex="1" parent="cCiW9AgQX1RRJQbk4KsR-61">
          <mxGeometry y="130" width="131" height="20" as="geometry" />
        </mxCell>
      </root>
    </mxGraphModel>
  </diagram>
</mxfile>
